Coordinates
version=1
nRows=54
nColumns=12
inDegrees=yes

Units are S.I. units (second, meters, Newtons, ...)
Angles are in degrees

endheader
time	SC_y	SC_z	SC_x	AC_y	AC_z	AC_x	GH_y	GH_z	GH_yy	EL_x	PS_y
       0.0              -57.73          13.41          27.86          40.29         -1.366         -13.62          3.772          15.82          148.0          35.82          81.76
   0.03086              -57.73          13.41          27.86          40.29         -1.369         -13.62          3.779          15.83          148.0          35.82          81.76
   0.06171              -57.72          13.41          27.87          40.29         -1.371         -13.62          3.786          15.84          147.9          35.82          81.76
   0.09257              -57.72          13.41          27.88          40.29         -1.373         -13.61          3.794          15.84          147.9          35.82          81.76
    0.1234              -57.72          13.41          27.89          40.29         -1.376         -13.61          3.803          15.85          147.9          35.82          81.76
    0.1543              -57.72          13.41          27.89          40.29         -1.379          -13.6          3.812          15.85          147.8          35.82          81.76
    0.1851              -57.71          13.41           27.9          40.29         -1.382          -13.6          3.822          15.86          147.8          35.82          81.76
     0.216              -57.71          13.41          27.91           40.3         -1.385          -13.6          3.833          15.87          147.8          35.82          81.76
    0.2468              -57.71          13.41          27.92           40.3         -1.388         -13.59          3.844          15.88          147.7          35.81          81.76
    0.2777               -57.7          13.41          27.93           40.3         -1.392         -13.58          3.856          15.88          147.7          35.81          81.76
    0.3086               -57.7          13.41          27.94           40.3         -1.396         -13.58          3.869          15.89          147.6          35.81          81.76
    0.3394              -57.69          13.41          27.95           40.3           -1.4         -13.57          3.883           15.9          147.6          35.81          81.76
    0.3703              -57.69          13.41          27.97           40.3         -1.405         -13.56          3.898          15.91          147.5          35.81          81.76
    0.4011              -57.68          13.41          27.98           40.3          -1.41         -13.56          3.914          15.93          147.5          35.81          81.76
     0.432              -57.68          13.41          27.99           40.3         -1.415         -13.55          3.931          15.94          147.4          35.81          81.76
    0.4628              -57.67          13.41          28.01           40.3         -1.421         -13.54           3.95          15.95          147.3          35.81          81.76
    0.4937              -57.66          13.41          28.03          40.31         -1.427         -13.53          3.971          15.97          147.3           35.8          81.76
    0.5245              -57.65          13.41          28.05          40.31         -1.434         -13.52          3.994          15.98          147.2           35.8          81.76
    0.5554              -57.65          13.41          28.07          40.31         -1.442         -13.51          4.018           16.0          147.1           35.8          81.76
    0.5862              -57.64          13.41          28.09          40.31          -1.45          -13.5          4.045          16.02          147.0           35.8          81.76
    0.6171              -57.63          13.41          28.12          40.31         -1.459         -13.48          4.075          16.04          146.9           35.8          81.76
     0.648              -57.62          13.42          28.14          40.31         -1.469         -13.47          4.107          16.06          146.8          35.79          81.76
    0.6788               -57.6          13.42          28.17          40.32          -1.48         -13.45          4.143          16.09          146.6          35.79          81.76
    0.7097              -57.59          13.42          28.21          40.32         -1.492         -13.43          4.183          16.12          146.5          35.79          81.76
    0.7405              -57.58          13.42          28.25          40.32         -1.505         -13.41          4.227          16.15          146.3          35.78          81.76
    0.7714              -57.56          13.42          28.29          40.33          -1.52         -13.39          4.276          16.18          146.1          35.78          81.76
    0.8022              -57.54          13.42          28.33          40.33         -1.537         -13.36          4.332          16.22          145.9          35.78          81.76
    0.8331              -57.52          13.42          28.39          40.33         -1.556         -13.33          4.394          16.27          145.7          35.77          81.75
    0.8639               -57.5          13.42          28.45          40.34         -1.578          -13.3          4.464          16.32          145.5          35.77          81.75
    0.8948              -57.47          13.42          28.51          40.35         -1.602         -13.26          4.544          16.37          145.2          35.76          81.75
    0.9257              -57.44          13.42          28.59          40.35          -1.63         -13.22          4.635          16.44          144.8          35.75          81.75
    0.9565               -57.4          13.42          28.68          40.36         -1.662         -13.17           4.74          16.51          144.4          35.74          81.75
    0.9874              -57.36          13.43          28.78          40.37         -1.699         -13.12           4.86           16.6          144.0          35.73          81.75
     1.018              -57.32          13.43           28.9          40.38         -1.741         -13.05            5.0           16.7          143.5          35.72          81.75
     1.049              -57.26          13.43          29.04          40.39         -1.791         -12.97          5.165          16.81          142.9          35.71          81.75
      1.08              -57.19          13.43          29.21           40.4          -1.85         -12.88          5.358          16.95          142.2          35.69          81.74
     1.111              -57.12          13.44           29.4          40.42         -1.921         -12.78          5.588          17.11          141.4          35.68          81.74
     1.142              -57.02          13.44          29.63          40.44         -2.005         -12.65          5.863          17.31          140.4          35.65          81.74
     1.172              -56.91          13.45          29.92          40.46         -2.106         -12.49          6.197          17.55          139.1          35.63          81.73
     1.203              -56.77          13.45          30.26          40.49         -2.231          -12.3          6.604          17.84          137.7          35.59          81.73
     1.234               -56.6          13.46          30.69          40.53         -2.384         -12.07          7.107          18.19          135.8          35.55          81.72
     1.265              -56.39          13.47          31.22          40.57         -2.575         -11.78          7.733          18.64          133.5          35.51          81.72
     1.296              -56.13          13.48          31.89          40.63         -2.816         -11.41          8.523           19.2          130.7          35.44          81.71
     1.327              -55.79           13.5          32.74           40.7         -3.123         -10.94          9.526          19.91          127.0          35.36           81.7
     1.358              -55.36          13.52          33.83          40.79         -3.515         -10.35          10.81          20.82          122.3          35.26          81.68
     1.388               -54.8          13.54          35.23           40.9         -4.018         -9.577          12.46          21.99          116.3          35.13          81.66
     1.419              -54.09          13.58          37.02          41.05         -4.661         -8.597          14.57          23.49          108.6          34.96          81.64
      1.45               -53.2          13.62          39.27          41.24         -5.469         -7.363          17.21          25.37          98.98          34.75          81.61
     1.481              -52.11          13.67          42.01          41.46         -6.453         -5.861          20.44          27.66          87.21          34.49          81.57
     1.512              -50.85          13.72          45.18          41.73         -7.595         -4.119          24.18          30.32          73.58           34.2          81.53
     1.543              -49.48          13.79          48.62          42.01         -8.831         -2.233          28.23          33.19          58.82          33.87          81.48
     1.574              -48.12          13.85          52.06          42.29         -10.07        -0.3469          32.28          36.07          44.05          33.55          81.44
     1.604              -46.86          13.91          55.23          42.56         -11.21          1.395          36.02          38.72          30.42          33.25           81.4
     1.635              -45.77          13.96          57.97          42.78         -12.19          2.898          39.24          41.02          18.66           33.0          81.36
